<svg width="62" height="56" viewBox="0 0 62 56" fill="none" xmlns="http://www.w3.org/2000/svg">
<path d="M58.047 19.3113L53.829 6.6573C53.2171 4.81495 52.0402 3.21228 50.4654 2.07702C48.8907 0.941765 46.9982 0.331653 45.0569 0.333378H16.9431C15.0018 0.331653 13.1093 0.941765 11.5346 2.07702C9.95981 3.21228 8.78288 4.81495 8.171 6.6573L3.953 19.3113C2.83135 19.7806 1.87348 20.5711 1.19979 21.5832C0.5261 22.5954 0.166665 23.7842 0.166666 25V40.4167C0.166666 42.6922 1.41233 44.6594 3.25 45.7293V52.75C3.25 53.5678 3.57485 54.3521 4.15309 54.9303C4.73132 55.5085 5.51558 55.8334 6.33333 55.8334H9.41667C10.2344 55.8334 11.0187 55.5085 11.5969 54.9303C12.1751 54.3521 12.5 53.5678 12.5 52.75V46.5834H49.5V52.75C49.5 53.5678 49.8249 54.3521 50.4031 54.9303C50.9813 55.5085 51.7656 55.8334 52.5833 55.8334H55.6667C56.4844 55.8334 57.2687 55.5085 57.8469 54.9303C58.4252 54.3521 58.75 53.5678 58.75 52.75V45.7293C59.6855 45.1928 60.463 44.4193 61.0043 43.4866C61.5456 42.5539 61.8316 41.4951 61.8333 40.4167V25C61.8333 23.7842 61.4739 22.5954 60.8002 21.5832C60.1265 20.5711 59.1686 19.7806 58.047 19.3113ZM16.9431 6.50004H45.0538C46.3828 6.50004 47.5606 7.34488 47.9799 8.60905L51.3901 18.8334H10.6099L14.017 8.60905C14.2216 7.99483 14.6143 7.46058 15.1395 7.08205C15.6647 6.70351 16.2957 6.49989 16.9431 6.50004ZM10.9583 37.3334C10.3508 37.3332 9.74919 37.2133 9.18795 36.9806C8.62671 36.7479 8.1168 36.407 7.68733 35.9772C7.25785 35.5475 6.91724 35.0373 6.68492 34.4759C6.4526 33.9145 6.33313 33.3129 6.33333 32.7053C6.33354 32.0977 6.4534 31.4962 6.6861 30.9349C6.91879 30.3737 7.25975 29.8638 7.68951 29.4343C8.11926 29.0048 8.6294 28.6642 9.1908 28.4319C9.75219 28.1996 10.3539 28.0801 10.9614 28.0803C12.1885 28.0807 13.3651 28.5685 14.2324 29.4365C15.0998 30.3044 15.5868 31.4813 15.5864 32.7084C15.586 33.9354 15.0982 35.112 14.2302 35.9794C13.3623 36.8467 12.1854 37.3338 10.9583 37.3334ZM51.0417 37.3334C50.4341 37.3332 49.8325 37.2133 49.2713 36.9806C48.71 36.7479 48.2001 36.407 47.7707 35.9772C47.3412 35.5475 47.0006 35.0373 46.7683 34.4759C46.5359 33.9145 46.4165 33.3129 46.4167 32.7053C46.4169 32.0977 46.5367 31.4962 46.7694 30.9349C47.0021 30.3737 47.3431 29.8638 47.7728 29.4343C48.2026 29.0048 48.7127 28.6642 49.2741 28.4319C49.8355 28.1996 50.4372 28.0801 51.0448 28.0803C52.2718 28.0807 53.4484 28.5685 54.3158 29.4365C55.1831 30.3044 55.6702 31.4813 55.6698 32.7084C55.6693 33.9354 55.1815 35.112 54.3136 35.9794C53.4456 36.8467 52.2687 37.3338 51.0417 37.3334Z" fill="black"/>
</svg>
