<svg width="73" height="73" viewBox="0 0 73 73" fill="none" xmlns="http://www.w3.org/2000/svg">
<path d="M64.8362 12.334C59.4828 10.5789 45.625 6.03772 45.625 6.08335C45.625 8.50345 44.6636 10.8244 42.9523 12.5357C41.2411 14.247 38.9201 15.2083 36.5 15.2083C34.0799 15.2083 31.7589 14.247 30.0476 12.5357C28.3364 10.8244 27.375 8.50345 27.375 6.08335C27.375 6.03772 13.5172 10.5789 8.16078 12.334C7.55391 12.5329 7.02581 12.9192 6.65249 13.4374C6.27916 13.9556 6.07988 14.5788 6.08333 15.2175V26.5203C6.08345 26.9823 6.18883 27.4383 6.39146 27.8535C6.5941 28.2687 6.88865 28.6323 7.25278 28.9167C7.61691 29.2011 8.04104 29.3987 8.49298 29.4947C8.94492 29.5907 9.41279 29.5825 9.86108 29.4707L18.25 27.375V63.875C18.25 64.6817 18.5705 65.4554 19.1409 66.0258C19.7113 66.5962 20.485 66.9167 21.2917 66.9167H51.7083C52.515 66.9167 53.2887 66.5962 53.8591 66.0258C54.4295 65.4554 54.75 64.6817 54.75 63.875V27.375L63.1389 29.4707C63.5872 29.5825 64.0551 29.5907 64.507 29.4947C64.9589 29.3987 65.3831 29.2011 65.7472 28.9167C66.1113 28.6323 66.4059 28.2687 66.6085 27.8535C66.8112 27.4383 66.9165 26.9823 66.9167 26.5203V15.2175C66.9199 14.5785 66.7202 13.9549 66.3463 13.4367C65.9724 12.9185 65.4436 12.5324 64.8362 12.334Z" fill="black"/>
</svg>
