<svg width="82" height="82" viewBox="0 0 82 82" fill="none" xmlns="http://www.w3.org/2000/svg">
<path d="M12.4167 41H8.33333V73.6667C8.33333 75.8326 9.19374 77.9098 10.7253 79.4414C12.2568 80.9729 14.3341 81.8333 16.5 81.8333H36.9167V41H12.4167ZM65.5 41H45.0833V81.8333H65.5C67.6659 81.8333 69.7431 80.9729 71.2747 79.4414C72.8062 77.9098 73.6667 75.8326 73.6667 73.6667V41H65.5ZM68.7299 20.5834C69.3288 18.598 69.6167 16.5318 69.5833 14.4584C69.5833 6.57752 63.1725 0.166687 55.2917 0.166687C48.6685 0.166687 44.2462 6.21819 41.392 12.7638C38.5786 6.57752 33.9317 0.166687 26.7083 0.166687C18.8275 0.166687 12.4167 6.57752 12.4167 14.4584C12.4167 16.892 12.7392 18.9051 13.2701 20.5834H0.166664V36.9167H36.9167V28.75H45.0833V36.9167H81.8333V20.5834H68.7299ZM20.5833 14.4584C20.5833 11.0814 23.3314 8.33335 26.7083 8.33335C30.3343 8.33335 33.7072 14.5604 35.6835 20.5834H24.6667C23.1395 20.5834 20.5833 20.5834 20.5833 14.4584ZM55.2917 8.33335C58.6686 8.33335 61.4167 11.0814 61.4167 14.4584C61.4167 20.5834 58.8605 20.5834 57.3333 20.5834H47.2189C49.3014 14.148 52.3272 8.33335 55.2917 8.33335Z" fill="black"/>
</svg>
