<svg width="72" height="72" viewBox="0 0 72 72" fill="none" xmlns="http://www.w3.org/2000/svg">
<path d="M36 13.635L26.34 23.225L37.925 34.81L34.215 38.52L22.63 26.935L16.435 33.13L28.02 44.715L24.31 48.425L12.725 36.84L5.725 43.84C4.61267 44.9174 3.88902 46.3333 3.66736 47.866C3.44569 49.3987 3.73852 50.9615 4.5 52.31L8 58.925L0.125 66.94L5.06 71.875L13.075 64L19.69 67.5C20.7568 68.1047 21.9638 68.4185 23.19 68.41C24.1137 68.4107 25.0284 68.2286 25.8814 67.8742C26.7344 67.5198 27.5088 67.0001 28.16 66.345L58.365 36L36 13.635ZM63.3 26.2L57.035 19.9L62.005 14.965L66.94 19.9L71.875 14.965L57.035 0.125L52.1 5.06L57.035 10.03L52.1 14.965L45.8 8.7L39.71 2.575L34.775 7.545L38.38 11.15V11.185L60.815 33.62H60.85L64.455 37.225L69.425 32.29L63.335 26.2H63.3Z" fill="black"/>
</svg>
