<svg width="66" height="66" viewBox="0 0 66 66" fill="none" xmlns="http://www.w3.org/2000/svg">
<path d="M62.25 13.5H55.75L51.6225 9.3725C50.1298 7.87824 48.112 7.0268 46 7H37.875C37.4198 5.17609 36.3782 3.55216 34.9102 2.37782C33.4423 1.20349 31.6293 0.543741 29.75 0.5V21.17C29.917 24.4523 31.2146 27.5756 33.4225 30.01C37.0578 33.5048 41.8127 35.6002 46.845 35.925L58.0575 31.44C59.3731 30.9119 60.5576 30.1033 61.5287 29.0705C62.4997 28.0377 63.2339 26.8056 63.68 25.46L65.5 20.4875C65.5494 20.1535 65.5494 19.814 65.5 19.48V16.75C65.5 15.888 65.1576 15.0614 64.5481 14.4519C63.9386 13.8424 63.112 13.5 62.25 13.5ZM46 20C45.3572 20 44.7289 19.8094 44.1944 19.4523C43.6599 19.0952 43.2434 18.5876 42.9974 17.9937C42.7514 17.3999 42.687 16.7464 42.8124 16.116C42.9378 15.4855 43.2474 14.9064 43.7019 14.4519C44.1564 13.9974 44.7355 13.6878 45.366 13.5624C45.9964 13.437 46.6499 13.5014 47.2437 13.7474C47.8376 13.9934 48.3452 14.4099 48.7023 14.9444C49.0594 15.4789 49.25 16.1072 49.25 16.75C49.25 17.612 48.9076 18.4386 48.2981 19.0481C47.6886 19.6576 46.862 20 46 20Z" fill="black"/>
<path d="M30.985 32.155C28.7179 29.672 27.2365 26.5735 26.7275 23.25H13.5C12.6315 23.3075 11.7608 23.1787 10.9462 22.8724C10.1315 22.566 9.39169 22.0892 8.77625 21.4738C8.16082 20.8583 7.68397 20.1185 7.37763 19.3038C7.0713 18.4892 6.94255 17.6185 7 16.75C7 15.888 6.65759 15.0614 6.0481 14.4519C5.4386 13.8424 4.61195 13.5 3.75 13.5C2.88805 13.5 2.0614 13.8424 1.4519 14.4519C0.84241 15.0614 0.5 15.888 0.5 16.75C0.532648 19.0054 1.06546 21.2255 2.06 23.25C3.15639 25.3759 4.88135 27.1122 7 28.2225V65.5H16.75V49.25H36.25V65.5H46V39.0775C40.3305 38.6309 35.0064 36.1763 30.985 32.155Z" fill="black"/>
</svg>
