<svg width="80" height="80" viewBox="0 0 80 80" fill="none" xmlns="http://www.w3.org/2000/svg">
<path d="M68.29 57.1333L54.74 44.8133C54.0995 44.2312 53.2578 43.9207 52.3927 43.9474C51.5276 43.9742 50.7067 44.336 50.1033 44.9566L42.1267 53.16C40.2067 52.7933 36.3467 51.59 32.3733 47.6267C28.4 43.65 27.1967 39.78 26.84 37.8733L35.0367 29.8933C35.658 29.2904 36.0205 28.4694 36.0472 27.604C36.074 26.7386 35.763 25.8968 35.18 25.2566L22.8633 11.71C22.2801 11.0678 21.4696 10.6783 20.6038 10.6242C19.7381 10.57 18.8853 10.8555 18.2267 11.42L10.9933 17.6233C10.417 18.2017 10.0731 18.9715 10.0267 19.7866C9.97667 20.62 9.02334 40.36 24.33 55.6733C37.6833 69.0233 54.41 70 59.0167 70C59.69 70 60.1033 69.98 60.2133 69.9733C61.0284 69.9277 61.7978 69.5822 62.3733 69.0033L68.5733 61.7667C69.14 61.1101 69.4276 60.258 69.3747 59.3923C69.3218 58.5266 68.9325 57.7159 68.29 57.1333Z" fill="black"/>
</svg>
