<svg width="360" height="262" viewBox="0 0 360 262" fill="none" xmlns="http://www.w3.org/2000/svg">
<g clip-path="url(#clip0_5_171)">
<path opacity="0.18" d="M356.763 204.717C356.403 207.556 355.773 210.358 354.88 213.086C350.051 227.901 337.931 240.766 323.754 248.745C307.3 258.028 293.454 261.965 279.259 261.965C272.026 261.9 264.826 261.008 257.811 259.305C256.893 259.092 255.974 258.861 254.992 258.622C252.632 258.019 250.217 257.354 247.748 256.609L244.754 255.723L243.23 255.226C241.192 254.57 239.126 253.87 237.005 253.125L233.801 251.981C223.416 248.24 213.417 243.018 203.207 238.744C193.796 234.817 184.191 231.652 173.981 231.288C148.272 230.277 125.318 246.786 99.9213 251.024C69.4287 256.086 36.9712 241.715 19.2688 217.244C18.3873 216.027 17.5457 214.794 16.7438 213.547C16.4959 213.175 16.2664 212.794 16.0276 212.421C15.3941 211.41 14.7973 210.409 14.1913 209.38C13.925 208.919 13.6679 208.449 13.42 207.979C13.1721 207.509 12.8691 206.951 12.612 206.437L12.5477 206.312C12.2723 205.789 12.0152 205.275 11.7673 204.752C9.40565 199.868 7.50647 194.788 6.09297 189.573C0.959542 170.422 1.97459 150.216 9.00359 131.634C9.63713 129.976 10.3166 128.336 11.0603 126.713C14.6779 118.716 19.6452 111.153 26.4673 105.417C40.2399 93.8469 59.5216 91.0718 76.0488 83.6332C84.037 79.9552 91.5451 75.3749 98.4155 69.9884C122.545 51.5205 141.57 25.5874 168.785 11.1269C180.416 5.03286 193.239 1.35738 206.43 0.336918C228.597 -1.41254 250.778 3.54543 269.894 14.5226C282.326 21.7129 293.932 30.0115 303.967 52.1854C309.522 64.4383 314.582 80.938 319.053 103.812C319.573 106.469 320.238 109.097 321.046 111.685C326.995 130.818 340.079 148.994 348.747 167.754C353.154 177.285 356.395 186.985 357.01 197.012C357.169 199.582 357.086 202.161 356.763 204.717Z" fill="#6FAAC7"/>
<path opacity="0.39" d="M139.173 207.288C137.548 207.35 135.648 207.554 134.812 208.901C134.545 209.623 134.239 210.33 133.894 211.02C132.976 212.182 131.231 212.075 129.744 211.907C120.597 210.911 111.341 212.304 102.942 215.941C109.204 218.778 116.292 219.301 123.197 219.78C173.89 223.326 224.756 226.811 275.504 224C278.497 223.841 281.656 223.592 284.107 221.926C285.31 221.11 286.338 219.771 286.091 218.379C285.732 216.402 283.272 215.631 281.233 215.249L220.23 203.919C213.803 202.722 207.192 201.543 200.599 201.729C194.475 201.888 189.48 204.264 183.65 205.399C169.592 208.13 153.506 206.765 139.173 207.288Z" fill="#099093"/>
<path d="M247.895 215.595L188.7 215.258C187.71 215.258 186.73 215.07 185.816 214.704C184.902 214.338 184.072 213.802 183.373 213.126C182.673 212.45 182.119 211.647 181.741 210.764C181.363 209.881 181.17 208.935 181.171 207.979V110.577C181.171 108.649 181.964 106.8 183.376 105.436C184.788 104.073 186.703 103.307 188.7 103.307H249.731C251.728 103.307 253.643 104.073 255.055 105.436C256.467 106.8 257.26 108.649 257.26 110.577L255.469 208.325C255.468 209.283 255.271 210.232 254.89 211.116C254.508 212.001 253.949 212.803 253.245 213.479C252.542 214.154 251.707 214.689 250.788 215.052C249.87 215.415 248.887 215.6 247.895 215.595Z" fill="#0CBFC2"/>
<path opacity="0.1" d="M250.778 132.795L241.467 135.083C226.666 138.718 211.158 138.718 196.357 135.083L187.075 132.795V109.744H250.75L250.778 132.795Z" fill="#020202"/>
<path d="M247.481 113.201H190.913V127.653H247.481V113.201Z" fill="white"/>
<path opacity="0.1" d="M203.088 147.362H190.94V159.447H203.088V147.362Z" fill="#020202"/>
<path opacity="0.1" d="M217.861 147.362H205.714V159.447H217.861V147.362Z" fill="#020202"/>
<path opacity="0.1" d="M232.625 147.362H220.478V159.447H232.625V147.362Z" fill="#020202"/>
<path opacity="0.1" d="M246.949 147.362H234.801V159.447H246.949V147.362Z" fill="#020202"/>
<path opacity="0.1" d="M203.088 162.621H190.94V174.705H203.088V162.621Z" fill="#020202"/>
<path opacity="0.1" d="M217.861 162.621H205.714V174.705H217.861V162.621Z" fill="#020202"/>
<path opacity="0.1" d="M232.625 162.621H220.478V174.705H232.625V162.621Z" fill="#020202"/>
<path opacity="0.1" d="M246.949 162.621H234.801V174.705H246.949V162.621Z" fill="#020202"/>
<path opacity="0.1" d="M246.949 177.879H234.801V205.213H246.949V177.879Z" fill="#020202"/>
<path opacity="0.1" d="M203.088 177.879H190.94V189.964H203.088V177.879Z" fill="#020202"/>
<path opacity="0.1" d="M217.861 177.879H205.714V189.964H217.861V177.879Z" fill="#020202"/>
<path opacity="0.1" d="M232.625 177.879H220.478V189.964H232.625V177.879Z" fill="#020202"/>
<path opacity="0.1" d="M203.088 193.129H190.94V205.213H203.088V193.129Z" fill="#020202"/>
<path opacity="0.1" d="M217.861 193.129H205.714V205.213H217.861V193.129Z" fill="#020202"/>
<path opacity="0.1" d="M232.625 193.129H220.478V205.213H232.625V193.129Z" fill="#020202"/>
<path d="M129.661 78.9431C129.771 78.9431 129.661 78.7835 129.588 78.7481C129.053 78.6544 128.514 78.5922 127.972 78.5619C127.424 78.528 126.912 78.2857 126.548 77.8881C126.311 77.5318 126.172 77.1228 126.144 76.7L125.134 70.086C124.308 64.7131 124.776 59.3581 124.492 53.9321C124.432 53.3727 124.459 52.8077 124.574 52.2564C124.712 51.8185 124.878 51.3891 125.07 50.9708C125.612 49.292 125.781 47.5215 125.566 45.7753C125.592 45.5468 125.562 45.3157 125.479 45.1003C125.396 44.8848 125.262 44.691 125.089 44.5341C124.363 44.0819 123.564 44.9774 123.206 45.7398L122.288 47.7258C122.251 47.8329 122.185 47.928 122.095 48.0007C122.009 48.0401 121.915 48.0606 121.82 48.0606C121.725 48.0606 121.63 48.0401 121.544 48.0007C120.029 47.6017 118.367 47.1141 117.569 45.793C116.981 44.8266 116.852 43.4258 115.732 43.0002C115.249 42.8767 114.736 42.9329 114.293 43.1579C113.851 43.3829 113.513 43.7602 113.345 44.2149C113.051 45.1371 113.003 46.1162 113.207 47.0609C113.455 48.9582 113.758 50.9531 114.998 52.4337C115.575 53.008 116.109 53.6213 116.595 54.269C117.057 55.2154 117.271 56.2564 117.22 57.3011L117.844 77.9944C117.899 80.0514 118.009 82.2324 119.24 83.9081C120.773 85.9827 123.592 86.6832 126.181 87.1531C127.48 87.4708 128.832 87.5341 130.157 87.3392C130.817 87.2278 131.432 86.9441 131.937 86.5191C132.442 86.094 132.817 85.5437 133.022 84.9277C133.099 84.372 133.061 83.8072 132.912 83.2655C132.762 82.7238 132.503 82.2161 132.149 81.7714C131.534 80.8316 130.093 79.9804 129.661 78.9431Z" fill="#F9D0B4"/>
<path d="M120.195 50.6339C119.136 50.9075 118.032 50.9827 116.944 50.8555C116.197 50.9014 115.459 50.6734 114.878 50.2172C114.653 49.9028 114.497 49.5467 114.421 49.1713C114.345 48.7959 114.351 48.4094 114.438 48.0361C114.434 47.9259 114.474 47.8185 114.548 47.7347C114.654 47.6692 114.783 47.6469 114.906 47.6726L120.075 48.1071C120.837 48.1691 122.444 47.9386 122.123 48.9937C121.947 49.3875 121.682 49.7388 121.349 50.0223C121.016 50.3059 120.621 50.5147 120.195 50.6339Z" fill="#E2B596"/>
<path d="M201.637 94.9818L192.859 96.5954L188.057 97.482L183.466 90.93C181.244 88.9174 181.281 88.5007 180.023 91.1782C176.571 98.5016 170.905 111.898 170.465 121.926L167.71 121.624L132.498 117.626L142.304 86.9846L129.386 88.2613L127.108 77.9324L148.162 71.2917C150.364 70.702 152.622 70.3307 154.902 70.1835C161.604 69.7756 173.642 69.2969 181.207 72.1517C191.28 75.8577 201.637 94.9818 201.637 94.9818Z" fill="#C7DEE9"/>
<path d="M200.26 94.4055C200.26 94.4055 204.015 99.9911 203.078 102.163C202.142 104.335 182.704 112.315 182.704 112.315C181.327 112.368 180.381 113.76 179.95 115.037C179.614 116.394 179.374 117.771 179.233 119.159C179.09 120.562 178.409 121.861 177.324 122.803C176.914 123.134 176.398 123.316 175.864 123.318C175.505 123.289 175.158 123.187 174.844 123.016C174.112 122.578 173.499 121.974 173.06 121.258C172.62 120.542 172.366 119.734 172.319 118.902C172.255 117.235 172.598 115.577 173.32 114.061H171.043C170.676 113.317 171.778 112.758 172.577 112.501C176.02 111.393 191.243 100.177 191.353 99.3704C191.463 98.5636 189.039 96.7106 189.039 96.7106C192.549 95.1281 196.387 94.3397 200.26 94.4055Z" fill="#F9D0B4"/>
<path d="M156.839 61.5214C156.827 62.3429 156.941 63.1617 157.179 63.9507C157.471 64.8443 157.992 65.6524 158.694 66.3002C159.382 66.9385 160.319 67.3463 160.53 68.3305C160.619 68.9413 160.576 69.5634 160.402 70.1569C160.194 70.8738 160.05 71.6064 159.97 72.3468C159.89 73.092 160.096 73.8397 160.548 74.448C160.9 74.8086 161.328 75.0913 161.804 75.2765C162.279 75.4617 162.791 75.5451 163.303 75.5208C164.04 75.5699 164.779 75.4584 165.466 75.1944C166.153 74.9304 166.769 74.5208 167.269 73.9959C167.881 73.0907 168.332 72.0927 168.601 71.0435C169.023 69.8554 169.354 68.6408 169.813 67.4971C170.789 65.2287 171.638 62.9113 172.356 60.555C173.131 58.0905 173.06 55.4501 172.154 53.0277C171.236 51.024 168.362 50.0665 166.25 50.031C163.978 50.0283 161.779 50.8043 160.043 52.2209C158.721 53.3469 158.033 55.3861 157.546 56.9465C157.075 58.4288 156.837 59.9709 156.839 61.5214Z" fill="#F9D0B4"/>
<path d="M158.602 51.4762C158.191 51.037 157.879 50.5209 157.684 49.9601C157.1 48.5811 156.957 47.0653 157.271 45.6069C157.432 44.8856 157.764 44.2105 158.242 43.6349C158.721 43.0594 159.331 42.5993 160.025 42.291C160.709 42.0324 161.44 41.9118 162.174 41.9363C162.555 41.9331 162.934 41.9931 163.294 42.1136C164.781 42.6633 165.13 44.6316 166.462 45.5093C166.532 45.2325 166.696 44.9859 166.927 44.8079C167.157 44.63 167.442 44.5306 167.738 44.5252C168.026 44.5428 168.306 44.6258 168.555 44.7675C168.804 44.9092 169.015 45.1057 169.17 45.3409C169.487 45.8028 169.763 46.2891 169.996 46.7949C170.493 47.6909 171.189 48.4692 172.035 49.0735C172.152 49.1808 172.305 49.2438 172.466 49.2508C172.659 49.2508 172.815 49.1001 172.999 49.0203C173.541 48.8075 174.11 49.3129 174.294 49.8448C174.392 50.3986 174.523 50.9463 174.688 51.485C175.01 52.15 175.744 52.5312 176.24 53.0809C176.701 53.6832 176.976 54.3986 177.034 55.1451C177.093 55.8916 176.932 56.6389 176.571 57.3012C175.817 58.6089 174.81 59.7647 173.605 60.7057C173.478 60.5373 173.288 60.4235 173.075 60.3887C172.862 60.3539 172.644 60.4009 172.466 60.5195C172.111 60.7632 171.801 61.0629 171.548 61.4061C171.423 61.578 171.259 61.7195 171.068 61.8195C170.876 61.9195 170.664 61.9753 170.446 61.9824C170.391 60.7057 171.089 59.4999 171.208 58.2232C171.232 57.2492 170.978 56.2876 170.475 55.4434C169.971 54.5991 169.237 53.9046 168.353 53.4356C166.56 52.5273 164.519 52.1802 162.513 52.4426C161.32 52.549 159.529 52.4071 158.602 51.4762Z" fill="#473F47"/>
<path d="M172.604 59.8014C172.981 59.637 173.404 59.5965 173.807 59.6861C174.068 59.7994 174.289 59.9859 174.439 60.2214C174.59 60.4569 174.664 60.7306 174.652 61.0071C174.639 61.6198 174.413 62.2104 174.009 62.6828C173.602 63.1493 173.129 63.5582 172.604 63.8975C172.321 64.1299 171.978 64.2859 171.612 64.3496C171.311 64.3675 171.011 64.2909 170.758 64.1312C170.505 63.9714 170.312 63.7371 170.208 63.463C170.117 63.1799 170.084 62.8823 170.113 62.5871C170.141 62.292 170.229 62.0051 170.373 61.743C170.582 61.2858 170.889 60.8765 171.274 60.5419C171.658 60.2073 172.111 59.9549 172.604 59.8014Z" fill="black"/>
<path d="M118.184 49.171C129.365 49.171 138.43 40.4183 138.43 29.6214C138.43 18.8245 129.365 10.0718 118.184 10.0718C107.002 10.0718 97.938 18.8245 97.938 29.6214C97.938 40.4183 107.002 49.171 118.184 49.171Z" fill="#FBCE64"/>
<path d="M135.22 32.3C136.746 23.2182 130.359 14.6609 120.954 13.1867C111.549 11.7125 102.687 17.8797 101.16 26.9615C99.6336 36.0433 106.02 44.6006 115.426 46.0748C124.831 47.5489 133.693 41.3818 135.22 32.3Z" fill="#D6A746"/>
<path d="M116.595 40.1188V37.459C115.115 37.4416 113.668 37.0272 112.418 36.2621L113.07 34.4889C114.239 35.2182 115.598 35.6118 116.99 35.6237C118.946 35.6237 120.25 34.5421 120.25 33.0348C120.25 31.5276 119.185 30.6853 117.165 29.8785C114.364 28.8235 112.638 27.6 112.638 25.3037C112.638 23.0074 114.254 21.4469 116.779 21.048V18.3882H118.478V20.9504C119.724 20.9494 120.95 21.2545 122.04 21.837L121.361 23.6102C120.321 23.0104 119.128 22.7032 117.918 22.7236C115.806 22.7236 115.016 23.9383 115.016 24.9933C115.016 26.3676 116.026 27.0591 118.404 28.0078C121.223 29.116 122.655 30.4903 122.655 32.8486C122.633 33.9803 122.18 35.0645 121.382 35.8937C120.584 36.723 119.498 37.2392 118.331 37.3437V40.0922L116.595 40.1188Z" fill="#F8C244"/>
<path d="M123.078 45.7576C123.178 45.3228 123.37 44.9127 123.642 44.5527C123.914 44.1927 124.259 43.8906 124.657 43.6652C124.719 43.6368 124.786 43.6221 124.854 43.6221C124.923 43.6221 124.99 43.6368 125.052 43.6652C125.163 43.7621 125.248 43.8838 125.3 44.0198C125.516 44.7119 125.609 45.4344 125.575 46.1565C125.607 46.6466 125.607 47.1382 125.575 47.6283C125.552 48.125 125.412 48.61 125.165 49.0464C124.919 49.4828 124.572 49.859 124.152 50.1463C123.693 50.3856 122.316 50.4743 122.316 49.4281C122.39 48.8287 122.513 48.2358 122.683 47.6549C122.776 47.0156 122.908 46.3821 123.078 45.7576Z" fill="#F9D0B4"/>
<path d="M132.507 117.617C132.507 117.617 133.104 161.601 135.436 177.906C137.723 193.802 139.284 206.277 139.348 207.412L144.857 206.729L150.274 137.849L157.151 166.513L170.97 167.479L170.437 121.881L132.507 117.617Z" fill="#838383"/>
<path d="M126.998 193.129C126.998 193.129 172.54 175.902 170.97 167.515L157.115 166.477L123.298 189.831L126.998 193.129Z" fill="#838383"/>
<path d="M138.365 211.721C138.31 211.858 138.31 212.009 138.365 212.146C138.461 212.258 138.594 212.333 138.742 212.359C142.791 213.583 146.895 214.824 151.137 214.957C151.716 214.957 152.432 214.877 152.597 214.354C152.656 214.022 152.577 213.681 152.377 213.405C151.264 211.488 149.649 209.886 147.694 208.759C146.5 208.068 145.096 207.492 144.471 206.286C143.567 206.499 142.645 206.638 141.717 206.703C141.092 206.703 139.981 206.49 139.513 206.96C139.144 207.617 138.925 208.342 138.87 209.088C138.632 209.956 138.494 210.843 138.365 211.721Z" fill="#515151"/>
<path d="M128.008 193.386C127.841 193.072 127.79 192.712 127.861 192.366C127.023 193.843 126.629 195.517 126.723 197.198C126.821 198.868 126.781 200.543 126.603 202.207C126.592 202.508 126.502 202.8 126.341 203.058C126.181 203.315 125.955 203.529 125.685 203.679C124.96 203.972 124.189 203.396 123.675 202.793C122.366 201.309 121.397 199.576 120.829 197.706C120.261 195.836 120.107 193.872 120.378 191.941C120.39 191.756 120.446 191.577 120.544 191.418C120.784 191.165 121.109 191.001 121.462 190.956C123.206 190.531 123.959 189.405 125.281 188.43C126.512 189.644 127.219 191.887 128.008 193.386Z" fill="#515151"/>
<path d="M192.859 96.5954L188.057 97.482L183.466 90.93C181.244 88.9174 181.281 88.5007 180.023 91.1782C176.571 98.5016 170.905 111.898 170.465 121.926L167.71 121.624C167.205 120.903 166.924 120.057 166.902 119.186C166.691 116.464 167.628 113.352 165.81 111.269C165.387 110.79 164.8 110.293 164.891 109.664C164.988 109.276 165.21 108.929 165.525 108.671C168.282 105.843 170.518 102.58 172.136 99.0247C173.054 97.0121 173.77 94.9108 174.835 92.9603C175.91 91.0951 177.138 89.3162 178.508 87.6407C179.426 86.4438 180.528 85.1582 182.043 84.839C183.778 84.4667 185.56 85.5306 186.634 86.9048C187.581 88.3625 188.362 89.914 188.966 91.5329C189.373 92.4896 189.947 93.3714 190.665 94.1395C191.17 94.6449 192.253 94.8399 192.639 95.3009C192.792 95.4782 192.893 95.6916 192.931 95.9192C192.97 96.1468 192.945 96.3802 192.859 96.5954Z" fill="url(#paint0_linear_5_171)"/>
</g>
<defs>
<linearGradient id="paint0_linear_5_171" x1="180.197" y1="31.4212" x2="177.595" y2="186.234" gradientUnits="userSpaceOnUse">
<stop offset="0.01"/>
<stop offset="0.13" stop-opacity="0.69"/>
<stop offset="0.25" stop-opacity="0.32"/>
<stop offset="1" stop-opacity="0"/>
</linearGradient>
<clipPath id="clip0_5_171">
<rect width="360" height="262" fill="white"/>
</clipPath>
</defs>
</svg>
