<svg width="52" height="52" viewBox="0 0 52 52" fill="none" xmlns="http://www.w3.org/2000/svg">
<path d="M4.53075 27.4636L0.583328 31.411L14.3993 37.3321L20.3232 51.1509L24.2706 47.2035L22.2969 37.3321L31.5457 28.0833L41.6236 49.5903L45.3617 45.8523L42.0396 17.5923L49.9344 9.69464C50.4677 9.17959 50.893 8.5635 51.1856 7.88231C51.4783 7.20112 51.6323 6.46848 51.6387 5.72712C51.6452 4.98577 51.5039 4.25056 51.2232 3.56439C50.9424 2.87822 50.5279 2.25483 50.0036 1.7306C49.4794 1.20636 48.856 0.791783 48.1698 0.511048C47.4837 0.230313 46.7484 0.0890445 46.0071 0.0954867C45.2657 0.101929 44.5331 0.255953 43.8519 0.54857C43.1707 0.841187 42.5546 1.26654 42.0396 1.7998L33.9354 9.90401L5.67533 6.57913L2.14387 10.1134L23.4834 20.3588L14.4021 29.4401L4.53075 27.4636Z" fill="black"/>
</svg>
